<mxfile host="65bd71144e" modified="2020-11-17T20:19:32.187Z" agent="5.0 (Macintosh; Intel Mac OS X 10_16_0) AppleWebKit/537.36 (KHTML, like Gecko) Code/1.51.1 Chrome/83.0.4103.122 Electron/9.3.3 Safari/537.36" version="13.6.5" etag="uFUVJzWEkDIAI2L9z6HH">
    <diagram id="Sw1jG6kdXm4aS6EOhocc" name="Page-1">
        <mxGraphModel dx="957" dy="1730" grid="1" gridSize="10" guides="1" tooltips="1" connect="1" arrows="1" fold="1" page="1" pageScale="1" pageWidth="827" pageHeight="1169" math="0" shadow="0">
            <root>
                <mxCell id="0"/>
                <mxCell id="1" parent="0"/>
                <mxCell id="2" value="Pay Slip" style="rounded=0;whiteSpace=wrap;html=1;strokeColor=none;fillColor=#2b4c7f;fontColor=#FFFFFF;" vertex="1" parent="1">
                    <mxGeometry x="600" y="120" width="120" height="40" as="geometry"/>
                </mxCell>
                <mxCell id="3" value="Consent" style="rounded=0;whiteSpace=wrap;html=1;strokeColor=none;fillColor=#2b4c7f;fontColor=#FFFFFF;" vertex="1" parent="1">
                    <mxGeometry x="120" y="120" width="120" height="40" as="geometry"/>
                </mxCell>
                <mxCell id="4" value="Purpose" style="rounded=0;whiteSpace=wrap;html=1;strokeColor=none;fillColor=#2b4c7f;fontColor=#FFFFFF;" vertex="1" parent="1">
                    <mxGeometry x="360" y="120" width="120" height="40" as="geometry"/>
                </mxCell>
                <mxCell id="10" value="" style="endArrow=classic;html=1;fontColor=#001029;strokeColor=#001029;labelBackgroundColor=#FFFFFF;entryX=0;entryY=0.5;entryDx=0;entryDy=0;exitX=1;exitY=0.5;exitDx=0;exitDy=0;" edge="1" parent="1" source="3" target="4">
                    <mxGeometry relative="1" as="geometry">
                        <mxPoint x="290" y="190" as="sourcePoint"/>
                        <mxPoint x="350" y="180" as="targetPoint"/>
                    </mxGeometry>
                </mxCell>
                <mxCell id="11" value="For" style="edgeLabel;resizable=0;html=1;align=center;verticalAlign=middle;fontColor=#001029;labelBackgroundColor=#FFFFFF;" connectable="0" vertex="1" parent="10">
                    <mxGeometry relative="1" as="geometry"/>
                </mxCell>
                <mxCell id="12" value="Person" style="rounded=0;whiteSpace=wrap;html=1;strokeColor=none;fontColor=#001029;fillColor=#EEEEEE;" vertex="1" parent="1">
                    <mxGeometry x="120" y="280" width="120" height="40" as="geometry"/>
                </mxCell>
                <mxCell id="13" value="Organization" style="rounded=0;whiteSpace=wrap;html=1;strokeColor=none;fontColor=#001029;fillColor=#EEEEEE;" vertex="1" parent="1">
                    <mxGeometry x="120" y="-40" width="120" height="40" as="geometry"/>
                </mxCell>
                <mxCell id="14" value="" style="endArrow=classic;html=1;fontColor=#001029;entryX=0.5;entryY=1;entryDx=0;entryDy=0;exitX=0.5;exitY=0;exitDx=0;exitDy=0;strokeColor=#001029;labelBackgroundColor=#FFFFFF;" edge="1" parent="1" source="3" target="13">
                    <mxGeometry relative="1" as="geometry">
                        <mxPoint x="130" y="150" as="sourcePoint"/>
                        <mxPoint x="10" y="150" as="targetPoint"/>
                    </mxGeometry>
                </mxCell>
                <mxCell id="15" value="Controller" style="edgeLabel;resizable=0;html=1;align=center;verticalAlign=middle;fontColor=#001029;labelBackgroundColor=#FFFFFF;" connectable="0" vertex="1" parent="14">
                    <mxGeometry relative="1" as="geometry"/>
                </mxCell>
                <mxCell id="16" value="" style="endArrow=classic;html=1;fontColor=#001029;entryX=0.5;entryY=0;entryDx=0;entryDy=0;exitX=0.5;exitY=1;exitDx=0;exitDy=0;strokeColor=#001029;labelBackgroundColor=#FFFFFF;" edge="1" parent="1" source="3" target="12">
                    <mxGeometry relative="1" as="geometry">
                        <mxPoint x="140" y="160" as="sourcePoint"/>
                        <mxPoint x="20" y="160" as="targetPoint"/>
                    </mxGeometry>
                </mxCell>
                <mxCell id="17" value="Subject" style="edgeLabel;resizable=0;html=1;align=center;verticalAlign=middle;fontColor=#001029;labelBackgroundColor=#FFFFFF;" connectable="0" vertex="1" parent="16">
                    <mxGeometry relative="1" as="geometry"/>
                </mxCell>
                <mxCell id="18" value="" style="endArrow=classic;html=1;fontColor=#001029;entryX=1;entryY=0.5;entryDx=0;entryDy=0;exitX=0.5;exitY=0;exitDx=0;exitDy=0;strokeColor=#001029;labelBackgroundColor=#FFFFFF;rounded=0;" edge="1" parent="1" source="2" target="13">
                    <mxGeometry relative="1" as="geometry">
                        <mxPoint x="430" y="130" as="sourcePoint"/>
                        <mxPoint x="430" y="10" as="targetPoint"/>
                        <Array as="points">
                            <mxPoint x="660" y="-20"/>
                        </Array>
                    </mxGeometry>
                </mxCell>
                <mxCell id="19" value="Employer" style="edgeLabel;resizable=0;html=1;align=center;verticalAlign=middle;fontColor=#001029;labelBackgroundColor=#FFFFFF;" connectable="0" vertex="1" parent="18">
                    <mxGeometry relative="1" as="geometry"/>
                </mxCell>
                <mxCell id="20" value="" style="endArrow=classic;html=1;fontColor=#001029;exitX=0.5;exitY=1;exitDx=0;exitDy=0;strokeColor=#001029;labelBackgroundColor=#FFFFFF;entryX=1;entryY=0.5;entryDx=0;entryDy=0;rounded=0;" edge="1" parent="1" source="2" target="12">
                    <mxGeometry relative="1" as="geometry">
                        <mxPoint x="440" y="140" as="sourcePoint"/>
                        <mxPoint x="580" y="340" as="targetPoint"/>
                        <Array as="points">
                            <mxPoint x="660" y="300"/>
                        </Array>
                    </mxGeometry>
                </mxCell>
                <mxCell id="21" value="Employee" style="edgeLabel;resizable=0;html=1;align=center;verticalAlign=middle;fontColor=#001029;labelBackgroundColor=#FFFFFF;" connectable="0" vertex="1" parent="20">
                    <mxGeometry relative="1" as="geometry"/>
                </mxCell>
                <mxCell id="22" value="" style="endArrow=classic;html=1;fontColor=#001029;strokeColor=#001029;labelBackgroundColor=#FFFFFF;entryX=0;entryY=0.5;entryDx=0;entryDy=0;exitX=1;exitY=0.5;exitDx=0;exitDy=0;dashed=1;" edge="1" parent="1" source="4" target="2">
                    <mxGeometry relative="1" as="geometry">
                        <mxPoint x="250" y="150" as="sourcePoint"/>
                        <mxPoint x="370" y="150" as="targetPoint"/>
                    </mxGeometry>
                </mxCell>
            </root>
        </mxGraphModel>
    </diagram>
</mxfile>